<svg width="52%" viewBox="0 0 430 163" fill="none" xmlns="http://www.w3.org/2000/svg">
    <g clip-path="url(#clip0)">
        <path d="M21.153 27.7446H0.693359L20.8063 115.14H39.8788L54.0966 61.3851H54.7901L69.3546 115.14H88.774L108.887 27.7446H87.7337L77.3305 84.6212L62.0724 27.7446H46.8143L31.903 84.6212L21.153 27.7446Z" fill="#626262" stroke="#626262"/>
        <path fill-rule="evenodd" clip-rule="evenodd" d="M185.871 115.14H164.371L159.516 97.8H133.855L128.306 115.14H107.5L135.935 27.7446H157.089L185.871 115.14ZM146.339 55.4893H147.032L154.661 82.5404H138.016L146.339 55.4893Z" fill="#626262"/>
        <path d="M221.935 115.14H202.516V84.6212L173.387 27.7446H194.887L212.225 65.8936H212.919L230.258 27.7446H251.758L221.935 84.6212V115.14Z" fill="#626262" stroke="#626262"/>
        <path d="M271.178 1.38746L270.975 1.59062C270.661 1.90466 270.484 2.33058 270.484 2.7747V141.211C270.484 141.839 270.734 142.441 271.178 142.885C271.622 143.329 272.224 143.579 272.852 143.579H303.775C304.815 143.579 305.9 145.457 306.202 148.087L306.549 152.596C306.662 154.445 306.734 155.499 306.896 157.451C307.057 159.404 306.847 160.018 307.936 160.919C309.188 161.956 310.797 161.895 312.097 160.919C312.097 160.919 336.025 143.579 338.452 143.579H339.146H339.839H340.533H426.939C427.567 143.579 428.17 143.329 428.613 142.885L428.817 142.682C429.131 142.368 429.307 141.942 429.307 141.498V2.7747C429.307 2.33058 429.131 1.90466 428.817 1.59062L428.613 1.38746L428.508 1.28226C428.131 0.905505 427.62 0.693848 427.088 0.693848H272.565C272.121 0.693848 271.695 0.870272 271.381 1.18431L271.178 1.38746Z" stroke="#626262" stroke-width="2"/>
        <path d="M342.266 40.23C342.266 40.23 342.612 82.8874 342.266 84.9683C341.919 87.0491 342.192 85.5841 341.951 86.5835C340.915 90.8878 336.787 102.309 322.153 102.309C307.518 102.309 303.162 90.8878 302.04 86.5835M301.693 40.23C301.693 40.23 300.999 83.9278 301.693 84.9683V40.23ZM301.693 84.9683C301.693 84.9683 301.779 85.5841 302.04 86.5835L301.693 84.9683ZM301.693 84.9683C301.693 84.9683 301.904 85.9527 302.04 86.5835L301.693 84.9683Z" stroke="#626262" stroke-width="4"/>
        <path d="M361.338 102.655V74.5636V102.655ZM361.338 74.5636V41.27H381.451C383.292 41.27 385.137 41.4904 386.881 42.0786C393.37 44.2664 396.288 47.1152 398.167 53.2067C398.63 54.7086 398.79 56.2834 398.79 57.8552C398.79 59.5082 398.612 61.165 398.103 62.7379C396.186 68.6682 393.386 71.4605 387.721 73.489C385.437 74.3071 382.996 74.5636 380.57 74.5636H361.338Z" stroke="#626262" stroke-width="4"/>
    </g>
    <defs>
        <clipPath id="clip0">
            <rect width="430" height="163" fill="white"/>
        </clipPath>
    </defs>
</svg>